<svg width="48" height="48" viewBox="0 0 48 48" fill="none" xmlns="http://www.w3.org/2000/svg">
<path fill-rule="evenodd" clip-rule="evenodd" d="M22.9725 9.53584C15.4439 10.0629 9.5 16.3373 9.5 24C9.5 32.0081 15.9919 38.5 24 38.5C30.4157 38.5 35.8594 34.3324 37.7697 28.5573C36.2995 29.1647 34.6882 29.5 33 29.5C26.0964 29.5 20.5 23.9036 20.5 17C20.5 14.2017 21.4202 11.6182 22.9725 9.53584ZM6.5 24C6.5 14.335 14.335 6.5 24 6.5C24.8992 6.5 25.7836 6.56795 26.6479 6.69924C27.2458 6.79006 27.7307 7.23107 27.8777 7.81772C28.0247 8.40438 27.8049 9.0219 27.3204 9.38388C24.9985 11.1187 23.5 13.8842 23.5 17C23.5 22.2467 27.7533 26.5 33 26.5C35.2685 26.5 37.3476 25.7068 38.9811 24.3813C39.4505 24.0004 40.1026 23.9385 40.6353 24.2242C41.168 24.5099 41.4771 25.0875 41.4194 25.6892C40.5687 34.5624 33.0954 41.5 24 41.5C14.335 41.5 6.5 33.665 6.5 24Z" fill="#24272C"/>
</svg>
