<svg width="48" height="48" viewBox="0 0 48 48" fill="none" xmlns="http://www.w3.org/2000/svg">
<path d="M24 32C28.4183 32 32 28.4183 32 24C32 19.5817 28.4183 16 24 16C19.5817 16 16 19.5817 16 24C16 28.4183 19.5817 32 24 32Z" stroke="black" stroke-width="3" stroke-linecap="round" stroke-linejoin="round"/>
<path d="M32 16V26C32 27.5913 32.6322 29.1174 33.7574 30.2426C34.8826 31.3678 36.4087 32 38 32C39.5913 32 41.1174 31.3678 42.2427 30.2426C43.3679 29.1174 44 27.5913 44 26V24C43.9997 19.486 42.4725 15.1049 39.6666 11.569C36.8607 8.03315 32.9411 5.55043 28.5453 4.52457C24.1495 3.49872 19.5359 3.99006 15.4547 5.91871C11.3735 7.84736 8.06481 11.0999 6.06653 15.1474C4.06825 19.195 3.49795 23.7995 4.44835 28.2122C5.39876 32.625 7.81397 36.5864 11.3013 39.4525C14.7886 42.3186 19.1429 43.9207 23.6562 43.9983C28.1694 44.0759 32.5762 42.6245 36.16 39.88" stroke="black" stroke-width="3" stroke-linecap="round" stroke-linejoin="round"/>
</svg>
