<svg width="48" height="48" viewBox="0 0 48 48" fill="none" xmlns="http://www.w3.org/2000/svg">
<path fill-rule="evenodd" clip-rule="evenodd" d="M14.734 15.465C15.562 15.465 16.234 16.137 16.234 16.965C16.234 17.793 15.562 18.465 14.734 18.465H12.852C9.624 18.465 7 21.087 7 24.313V34.083C7 37.321 9.632 39.953 12.87 39.953H35.15C38.374 39.953 41 37.327 41 34.103V24.335C41 21.097 38.366 18.465 35.132 18.465H33.268C32.44 18.465 31.768 17.793 31.768 16.965C31.768 16.137 32.44 15.465 33.268 15.465H35.132C40.022 15.465 44 19.445 44 24.335V34.103C44 38.983 40.028 42.953 35.15 42.953H12.87C7.98 42.953 4 38.975 4 34.083V24.313C4 19.433 7.97 15.465 12.852 15.465H14.734ZM24.0016 6C24.8296 6 25.5016 6.672 25.5016 7.5L25.5 27.952L28.7716 24.668C29.3556 24.08 30.3036 24.08 30.8916 24.664C31.4776 25.248 31.4796 26.198 30.8956 26.786L25.0771 32.6273C25.0203 32.6857 24.9587 32.7396 24.8931 32.7882L25.0636 32.64C24.9992 32.7053 24.9293 32.764 24.855 32.8156C24.8096 32.8469 24.7635 32.8753 24.7159 32.9011C24.6929 32.9137 24.6688 32.9259 24.6444 32.9375C24.6008 32.9582 24.556 32.9769 24.5102 32.9935C24.4872 33.0016 24.4643 33.0092 24.4412 33.0163C24.3848 33.0337 24.3269 33.0478 24.2678 33.0584C24.2545 33.0606 24.2423 33.0627 24.2302 33.0645C24.1825 33.072 24.1327 33.0772 24.0823 33.0799C24.055 33.0813 24.0284 33.082 24.0016 33.082L23.922 33.076L23.7981 33.0683C23.7893 33.0671 23.7805 33.0658 23.7717 33.0645L24.0016 33.082C23.9122 33.082 23.8236 33.074 23.7366 33.0585C23.6764 33.0478 23.6187 33.0338 23.5623 33.0166C23.5397 33.0095 23.5176 33.0021 23.4957 32.9943C23.4497 32.978 23.4043 32.9591 23.3601 32.9382C23.3333 32.9254 23.3066 32.9118 23.2803 32.8974C23.2433 32.877 23.2077 32.8554 23.1731 32.8324C23.1494 32.8168 23.1257 32.8 23.1025 32.7825C23.0453 32.7396 22.9914 32.6928 22.9411 32.6425L22.9396 32.64L17.1076 26.786C16.5236 26.198 16.5256 25.248 17.1116 24.664C17.6996 24.08 18.6476 24.08 19.2316 24.668L22.5 27.952L22.5016 7.5C22.5016 6.672 23.1736 6 24.0016 6Z" fill="black"/>
</svg>
