<svg width="48" height="48" viewBox="0 0 48 48" fill="none" xmlns="http://www.w3.org/2000/svg">
<path fill-rule="evenodd" clip-rule="evenodd" d="M22.617 4C27.509 4 31.489 7.98 31.489 12.872V14.736C31.489 15.564 30.817 16.236 29.989 16.236C29.161 16.236 28.489 15.564 28.489 14.736V12.872C28.489 9.632 25.855 7 22.617 7H12.867C9.63298 7 7.00098 9.632 7.00098 12.872V35.13C7.00098 38.368 9.63298 41 12.867 41H22.639C25.863 41 28.489 38.376 28.489 35.152V33.266C28.489 32.438 29.161 31.766 29.989 31.766C30.817 31.766 31.489 32.438 31.489 33.266V35.152C31.489 40.032 27.517 44 22.639 44H12.867C7.97898 44 4.00098 40.022 4.00098 35.13V12.872C4.00098 7.98 7.97898 4 12.867 4H22.617ZM38.7772 17.108L44.6332 22.938C44.6854 22.9898 44.7322 23.0437 44.775 23.1008L44.6332 22.938C44.704 23.0079 44.7671 23.0842 44.8217 23.1656C44.8458 23.2025 44.869 23.2406 44.8905 23.2798C44.908 23.3105 44.924 23.3424 44.9389 23.3749C44.9516 23.4036 44.9637 23.4324 44.9749 23.4615C44.99 23.4995 45.0032 23.5386 45.0148 23.5782C45.0235 23.6094 45.0315 23.6405 45.0386 23.672C45.0475 23.7102 45.0545 23.7486 45.0601 23.7874C45.0632 23.8125 45.0663 23.8389 45.0686 23.8655C45.0732 23.9111 45.0752 23.9555 45.0752 24L45.065 24.124L45.0609 24.2035C45.0604 24.2068 45.0599 24.2102 45.0595 24.2136L45.0752 24C45.0752 24.111 45.0629 24.221 45.039 24.3278C45.0315 24.3595 45.0235 24.3906 45.0145 24.4213C45.0032 24.4614 44.99 24.5005 44.9752 24.5389C44.9637 24.5676 44.9516 24.5964 44.9386 24.6246C44.924 24.6576 44.908 24.6895 44.8908 24.7209C44.869 24.7594 44.8458 24.7975 44.821 24.8345C44.8069 24.8564 44.7915 24.8781 44.7755 24.8993C44.7279 24.962 44.676 25.0209 44.6199 25.0755L38.7772 30.894C38.4852 31.186 38.1012 31.332 37.7192 31.332C37.3352 31.332 36.9492 31.186 36.6572 30.89C36.0732 30.302 36.0752 29.354 36.6612 28.77L39.941 25.5H19.4926C18.6646 25.5 17.9926 24.828 17.9926 24C17.9926 23.172 18.6646 22.5 19.4926 22.5H39.945L36.6612 19.232C36.0752 18.648 36.0712 17.7 36.6572 17.112C37.2412 16.524 38.1892 16.524 38.7772 17.108Z" fill="black"/>
</svg>
