<svg width="48" height="48" viewBox="0 0 48 48" fill="none" xmlns="http://www.w3.org/2000/svg">
<path d="M27.2812 39.1389C27.8361 38.6437 28.6876 38.613 29.2801 39.099C29.9318 39.6335 30.0231 40.5908 29.4841 41.2371C28.1554 42.9604 26.0998 43.9797 23.9125 44L23.4783 43.9817C21.4617 43.8354 19.5952 42.841 18.3586 41.2371L18.2272 41.0537C17.8409 40.4203 17.9702 39.5849 18.5627 39.099C19.2144 38.5644 20.1796 38.655 20.7186 39.3014C20.9553 39.6152 21.2361 39.8937 21.5525 40.1285C22.3983 40.7529 23.4604 41.0168 24.5031 40.8615C25.5458 40.7062 26.4829 40.1446 27.1064 39.3014H27.1242L27.2812 39.1389ZM23.9302 4C30.0697 4 36.9544 8.32908 37.7351 15.2802V18.9054C38.0016 20.2138 38.614 21.4285 39.5095 22.425C39.5626 22.4852 39.6101 22.55 39.6515 22.6186C40.4634 23.8408 40.9291 25.2569 41 26.7189L40.9468 27.0884C41.0079 29.089 40.3402 31.0445 39.0659 32.5966C37.4386 34.3525 35.2139 35.4494 32.82 35.6762C26.9233 36.3235 20.9726 36.3235 15.076 35.6762C12.7171 35.434 10.5311 34.3375 8.93654 32.5966C7.64123 31.0668 6.95349 29.1207 7.00244 27.1236V26.8773C7.1 25.3716 7.60241 23.9193 8.45745 22.6714L8.59941 22.4954C9.48863 21.4947 10.1001 20.2818 10.3738 18.9758V15.3506L10.4719 15.1481C10.7702 14.634 11.3513 14.3333 11.9598 14.3991C12.6444 14.4732 13.1941 14.9928 13.3016 15.6674V19.2926C13.3085 19.3569 13.3085 19.4218 13.3016 19.4861C12.9321 21.3016 12.0876 22.9888 10.8529 24.3784C10.3774 25.1296 10.1082 25.991 10.0722 26.8773V27.2644C10.0328 28.5109 10.4487 29.7295 11.2433 30.696C12.3449 31.8245 13.8181 32.5238 15.3954 32.667C21.1039 33.2829 26.863 33.2829 32.5716 32.667C34.1919 32.5195 35.7011 31.7867 36.8124 30.608C37.568 29.6643 37.9638 28.4866 37.9303 27.282V26.8773C37.8939 25.9881 37.6314 25.1224 37.1673 24.3608C35.8812 22.987 34.987 21.2984 34.5767 19.4685C34.5698 19.4042 34.5698 19.3393 34.5767 19.275V15.6322C34.0621 10.3176 28.7211 7.02684 24.0722 7.02684C22.0957 7.02233 20.1517 7.52554 18.4296 8.48746L18.2187 8.59216C17.7851 8.76726 17.2889 8.73652 16.8766 8.49886C16.3956 8.2216 16.1048 7.70666 16.1178 7.15501C16.1308 6.60336 16.4455 6.10245 16.9391 5.84778C19.0731 4.65214 21.4793 4.01617 23.9302 4Z" fill="black"/>
</svg>
