<svg width="48" height="48" viewBox="0 0 48 48" fill="none" xmlns="http://www.w3.org/2000/svg">
<path d="M12 18V4H36V18" stroke="black" stroke-width="3" stroke-linecap="round" stroke-linejoin="round"/>
<path d="M12 36H8C6.93913 36 5.92172 35.5786 5.17157 34.8284C4.42143 34.0783 4 33.0609 4 32V22C4 20.9391 4.42143 19.9217 5.17157 19.1716C5.92172 18.4214 6.93913 18 8 18H40C41.0609 18 42.0783 18.4214 42.8284 19.1716C43.5786 19.9217 44 20.9391 44 22V32C44 33.0609 43.5786 34.0783 42.8284 34.8284C42.0783 35.5786 41.0609 36 40 36H36" stroke="black" stroke-width="3" stroke-linecap="round" stroke-linejoin="round"/>
<path d="M36 28H12V44H36V28Z" stroke="black" stroke-width="3" stroke-linecap="round" stroke-linejoin="round"/>
</svg>
