<svg width="48" height="48" viewBox="0 0 48 48" fill="none" xmlns="http://www.w3.org/2000/svg">
<path fill-rule="evenodd" clip-rule="evenodd" d="M39.68 36.3863C39.68 42.9783 30.64 43.7403 23.842 43.7403L23.3555 43.7399C19.0244 43.7294 8 43.4559 8 36.3463C8 29.8888 16.6767 29.0258 23.423 28.9933L24.3285 28.9927C28.6593 29.0033 39.68 29.2767 39.68 36.3863ZM23.842 31.9923C15.32 31.9923 11 33.4563 11 36.3463C11 39.2623 15.32 40.7403 23.842 40.7403C32.362 40.7403 36.68 39.2763 36.68 36.3863C36.68 33.4703 32.362 31.9923 23.842 31.9923ZM23.842 3.99951C29.698 3.99951 34.46 8.76351 34.46 14.6195C34.46 20.4755 29.698 25.2375 23.842 25.2375H23.778C17.934 25.2195 13.2 20.4535 13.2199 14.6135C13.2199 8.76351 17.984 3.99951 23.842 3.99951ZM23.842 6.85551C19.56 6.85551 16.076 10.3375 16.076 14.6195C16.062 18.8875 19.52 22.3675 23.784 22.3835L23.842 23.8115V22.3835C28.122 22.3835 31.604 18.8995 31.604 14.6195C31.604 10.3375 28.122 6.85551 23.842 6.85551Z" fill="black"/>
</svg>
