<svg width="48" height="48" viewBox="0 0 48 48" fill="none" xmlns="http://www.w3.org/2000/svg">
<path fill-rule="evenodd" clip-rule="evenodd" d="M21.6099 29.6355L28.9239 41.5015C29.2439 42.0215 29.7439 42.0155 29.9459 41.9875C30.1479 41.9595 30.6339 41.8355 30.8099 41.2455L39.9559 10.3555C40.1159 9.80954 39.8219 9.43754 39.6899 9.30554C39.5619 9.17354 39.1959 8.89154 38.6659 9.04154L7.75389 18.0935C7.16789 18.2655 7.03989 18.7575 7.01189 18.9595C6.98389 19.1655 6.97589 19.6755 7.49389 20.0015L19.4959 27.5075L30.0999 16.7915C30.6819 16.2035 31.6319 16.1975 32.2219 16.7795C32.8119 17.3615 32.8159 18.3135 32.2339 18.9015L21.6099 29.6355ZM29.7899 44.9995C28.3979 44.9995 27.1219 44.2915 26.3699 43.0755L18.6159 30.4935L5.90389 22.5435C4.53389 21.6855 3.81789 20.1575 4.03989 18.5515C4.25989 16.9455 5.36189 15.6695 6.90989 15.2155L37.8219 6.16354C39.2439 5.74754 40.7679 6.14154 41.8159 7.18554C42.8639 8.23954 43.2539 9.77954 42.8299 11.2075L33.6839 42.0955C33.2259 43.6495 31.9459 44.7475 30.3439 44.9615C30.1559 44.9855 29.9739 44.9995 29.7899 44.9995Z" fill="black"/>
</svg>
